HIERARCHY
ROOT Hips
{
	OFFSET 0.000000 0.000000 0.000000
	CHANNELS 6 Xposition Yposition Zposition Xrotation Yrotation Zrotation
	JOINT LeftUpLeg_virtual
	{
		OFFSET 0.000000 0.000000 0.000000
		CHANNELS 3 Xrotation Yrotation Zrotation
		JOINT LeftUpLeg
		{
			OFFSET 15.427100 -6.655098 0.678600
			CHANNELS 3 Xrotation Yrotation Zrotation
			JOINT LeftLeg
			{
				OFFSET 4.081073 -39.591068 13.024000
				CHANNELS 3 Xrotation Yrotation Zrotation
				JOINT LeftFoot
				{
					OFFSET -4.081074 -37.707932 -15.979700
					CHANNELS 3 Xrotation Yrotation Zrotation
					JOINT LeftToeBase
					{
						OFFSET 5.346399 -15.068900 20.645000
						CHANNELS 3 Xrotation Yrotation Zrotation
						JOINT LeftToe_End
						{
							OFFSET 2.754700 0.931300 11.300900
							CHANNELS 3 Xrotation Yrotation Zrotation
							End Site
							{
								OFFSET 0 0 0
							}
						}
					}
				}
			}
		}
	}
	JOINT RightUpLeg_virtual
	{
		OFFSET 0.000000 0.000000 0.000000
		CHANNELS 3 Xrotation Yrotation Zrotation
		JOINT RightUpLeg
		{
			OFFSET -15.569500 -6.655098 0.678600
			CHANNELS 3 Xrotation Yrotation Zrotation
			JOINT RightLeg
			{
				OFFSET -4.081825 -39.591045 13.023800
				CHANNELS 3 Xrotation Yrotation Zrotation
				JOINT RightFoot
				{
					OFFSET 4.081824 -37.707954 -15.979600
					CHANNELS 3 Xrotation Yrotation Zrotation
					JOINT RightToeBase
					{
						OFFSET -5.346400 -15.068900 20.645000
						CHANNELS 3 Xrotation Yrotation Zrotation
						JOINT RightToe_End
						{
							OFFSET -2.754700 0.931300 11.300900
							CHANNELS 3 Xrotation Yrotation Zrotation
							End Site
							{
								OFFSET 0 0 0
							}
						}
					}
				}
			}
		}
	}
	JOINT Spine_virtual
	{
		OFFSET 0.000000 0.000000 0.000000
		CHANNELS 3 Xrotation Yrotation Zrotation
		JOINT Spine
		{
			OFFSET -0.279200 12.230698 -2.892100
			CHANNELS 3 Xrotation Yrotation Zrotation
			JOINT Spine1
			{
				OFFSET -0.232667 10.192268 -1.242267
				CHANNELS 3 Xrotation Yrotation Zrotation
				JOINT Spine1_split
				{
					OFFSET -0.232667 10.192268 -1.242267
					CHANNELS 3 Xrotation Yrotation Zrotation
					JOINT Spine2
					{
						OFFSET -0.232667 10.192268 -1.242267
						CHANNELS 3 Xrotation Yrotation Zrotation
						JOINT Neck_virtual
						{
							OFFSET 0.000000 0.000000 0.000000
							CHANNELS 3 Xrotation Yrotation Zrotation
							JOINT Neck
							{
								OFFSET -0.418800 17.814194 8.416900
								CHANNELS 3 Xrotation Yrotation Zrotation
								JOINT Head
								{
									OFFSET 0.000000 7.031097 3.806800
									CHANNELS 3 Xrotation Yrotation Zrotation
									JOINT HeadTop_End
									{
										OFFSET 0.000000 24.646606 12.978600
										CHANNELS 3 Xrotation Yrotation Zrotation
										End Site
										{
											OFFSET 0 0 0
										}
									}
								}
							}
						}
						JOINT LeftShoulder_virtual
						{
							OFFSET 0.000000 0.000000 0.000000
							CHANNELS 3 Xrotation Yrotation Zrotation
							JOINT LeftShoulder
							{
								OFFSET 8.476499 7.247704 -3.868750
								CHANNELS 3 Xrotation Yrotation Zrotation
								JOINT LeftShoulder_split
								{
									OFFSET 8.476499 7.247704 -3.868750
									CHANNELS 3 Xrotation Yrotation Zrotation
									JOINT LeftArm
									{
										OFFSET 9.308998 -2.777710 0.208600
										CHANNELS 3 Xrotation Yrotation Zrotation
										JOINT LeftForeArm
										{
											OFFSET 29.972298 0.000000 0.000000
											CHANNELS 3 Xrotation Yrotation Zrotation
											JOINT LeftHand
											{
												OFFSET 26.026505 0.000000 0.000000
												CHANNELS 3 Xrotation Yrotation Zrotation
												End Site
												{
													OFFSET 0 0 0
												}
											}
										}
									}
								}
							}
						}
						JOINT RightShoulder_virtual
						{
							OFFSET 0.000000 0.000000 0.000000
							CHANNELS 3 Xrotation Yrotation Zrotation
							JOINT RightShoulder
							{
								OFFSET -7.570500 7.247704 -3.868750
								CHANNELS 3 Xrotation Yrotation Zrotation
								JOINT RightShoulder_split
								{
									OFFSET -7.570500 7.247704 -3.868750
									CHANNELS 3 Xrotation Yrotation Zrotation
									JOINT RightArm
									{
										OFFSET -9.308998 -2.777710 0.208500
										CHANNELS 3 Xrotation Yrotation Zrotation
										JOINT RightForeArm
										{
											OFFSET -29.972300 0.000000 0.000000
											CHANNELS 3 Xrotation Yrotation Zrotation
											JOINT RightHand
											{
												OFFSET -26.026505 0.000000 0.000000
												CHANNELS 3 Xrotation Yrotation Zrotation
												End Site
												{
													OFFSET 0 0 0
												}
											}
										}
									}
								}
							}
						}
					}
				}
			}
		}
	}
}
MOTION
Frames: 11
Frame Time: 0.03333333
-14.058049 14.041737 -79.885880 0.000000 0.000000 0.000000 -90.972287 17.387302 -3.647946 -52.949986 14.350796 38.538639 59.990795 8.926886 0.245463 34.454216 4.942969 -10.903243 -3.149881 0.003829 -0.928623 0.000000 0.000000 0.000000 -92.728711 21.984741 0.156504 -53.706440 2.826291 -41.442487 92.958799 1.483091 -1.128104 30.316044 -0.125008 12.788523 4.463408 3.422739 1.362464 0.000000 0.000000 0.000000 -90.545844 17.686471 -3.716008 57.646667 11.481528 -1.558198 18.431733 4.178233 0.458507 0.283383 -3.459816 1.076245 0.000000 0.000000 0.000000 21.664715 4.192157 0.164291 11.657409 -2.172118 -3.153443 30.168293 0.967469 -0.118258 0.000000 0.000000 0.000000 20.147735 3.588589 -0.182535 1.363388 -4.757209 -10.166943 -1.551269 -1.941881 -5.927939 -35.683306 -19.374562 -35.756341 -7.320735 -56.851991 -1.959180 0.000000 0.000000 0.000000 19.569885 3.352259 0.378953 0.138619 11.925994 16.812628 0.024933 0.518016 -3.883544 -26.738357 -7.298830 35.487081 1.516060 45.997520 -2.212514 0.000000 0.000000 0.000000 
-14.565216 13.681686 -82.306152 0.000000 0.000000 0.000000 -98.495884 16.944950 -4.193115 -46.414967 11.164842 38.032402 59.807151 7.273796 0.978208 32.799904 3.588374 -9.368718 -2.935061 0.243754 -1.546072 0.000000 0.000000 0.000000 -100.209981 22.565410 1.514145 -43.018813 4.309259 -34.920582 91.073251 1.797769 -4.913017 27.814088 0.090092 19.102465 1.379930 2.964966 1.178543 0.000000 0.000000 0.000000 -98.986776 18.017704 -3.624518 55.462683 11.694583 0.247067 19.370311 4.265041 0.553284 0.454898 -3.532909 1.246966 0.000000 0.000000 0.000000 21.780633 4.298943 0.063045 11.811053 -2.914683 -2.987422 31.961119 0.961939 -1.839678 0.000000 0.000000 0.000000 20.563370 3.704376 0.102692 1.136518 -4.281526 -8.705000 -0.878993 -1.935148 -5.785396 -30.458955 -19.864186 -32.927235 -9.101757 -59.504806 -3.410749 0.000000 0.000000 0.000000 20.082780 3.540715 0.549699 -0.013459 12.798718 16.235264 -0.633869 2.432612 -3.773440 -16.043956 -6.405529 35.761218 1.423198 41.432197 -1.470185 0.000000 0.000000 0.000000 
-14.852675 13.489948 -84.444870 0.000000 0.000000 0.000000 -105.279539 16.689637 -4.426402 -40.026018 7.770498 38.250217 59.724069 5.134426 1.496128 31.811780 1.589133 -8.435853 -2.128863 0.503870 -2.104224 0.000000 0.000000 0.000000 -106.872933 23.110201 3.135742 -33.365706 6.602868 -29.027956 89.533330 1.248015 -8.035249 24.744208 -1.421831 21.894962 0.363105 2.478070 1.118947 0.000000 0.000000 0.000000 -106.601392 18.618727 -3.178822 53.054837 10.491480 2.076667 19.311549 3.886832 0.607615 1.691312 -3.107710 1.817876 0.000000 0.000000 0.000000 21.109480 3.925897 0.010510 11.567594 -3.522408 -2.390400 32.081535 0.946071 -3.686463 0.000000 0.000000 0.000000 19.908557 3.281659 0.353834 0.753156 -4.357627 -7.652638 -0.211221 -1.882530 -4.942485 -24.742002 -20.103789 -31.314877 -9.940937 -59.895472 -4.242871 0.000000 0.000000 0.000000 19.618132 3.234620 0.725253 0.195168 13.517647 15.283054 -1.648854 3.881852 -3.509730 -4.952210 -3.831904 35.636751 1.484583 34.516952 -0.972034 0.000000 0.000000 0.000000 
-15.133178 13.682896 -86.814545 0.000000 0.000000 0.000000 -110.982508 16.855464 -3.996521 -33.827577 4.832038 39.379807 59.160933 3.119753 2.008716 30.849417 -0.568053 -8.350480 -1.278061 0.719256 -2.395773 0.000000 0.000000 0.000000 -112.752169 23.497248 4.769743 -25.748787 8.786973 -24.246374 88.268085 -0.048566 -9.959298 21.977471 -3.955565 20.920531 2.287443 2.116847 1.125305 0.000000 0.000000 0.000000 -112.961179 19.334964 -2.248287 50.366553 7.801685 3.517446 18.063583 2.953392 0.535147 2.286591 -2.438391 2.310081 0.000000 0.000000 0.000000 19.530202 3.007158 -0.064323 10.993991 -3.969802 -1.377193 30.957692 1.477003 -5.876328 0.000000 0.000000 0.000000 18.150359 2.296143 0.434502 0.330723 -4.500885 -7.125757 0.366248 -1.881311 -3.541287 -17.851533 -20.192443 -30.646960 -9.286043 -57.765621 -3.960476 0.000000 0.000000 0.000000 18.082347 2.298685 0.792618 0.732336 13.525253 14.076351 -2.168106 4.249358 -3.228859 5.591981 -0.171264 35.639026 1.834324 30.265340 -0.896022 0.000000 0.000000 0.000000 
-15.569189 14.214466 -89.308960 0.000000 0.000000 0.000000 -115.427820 17.389224 -2.970762 -28.165494 2.888476 41.304667 57.948985 1.606225 2.521695 29.131324 -2.458203 -9.077963 -0.830973 0.820725 -2.261574 0.000000 0.000000 0.000000 -117.765794 23.835499 6.479047 -20.822103 10.539508 -20.781190 87.811303 -1.078008 -11.000414 20.704279 -5.416201 18.573690 4.728328 1.962855 0.995674 0.000000 0.000000 0.000000 -117.847251 19.932760 -0.949250 47.430148 3.843019 4.239413 15.784690 1.514180 0.276274 2.400568 -1.625056 2.345095 0.000000 0.000000 0.000000 17.111137 1.551754 -0.207919 9.676941 -4.167473 -0.335209 28.882483 2.692645 -8.416913 0.000000 0.000000 0.000000 15.579083 0.817230 0.307170 -0.010962 -4.462349 -6.738713 0.246190 -1.594027 -2.517476 -9.157738 -20.094761 -30.063545 -7.918920 -53.427543 -3.166461 0.000000 0.000000 0.000000 15.582986 0.742424 0.674782 1.449822 12.431252 12.793927 -1.957087 3.410751 -3.064966 15.286281 3.649669 35.996944 2.379829 32.496172 -1.236240 0.000000 0.000000 0.000000 
-16.271240 14.846912 -91.891159 0.000000 0.000000 0.000000 -118.788137 17.928910 -1.756498 -23.512692 1.856138 43.566638 56.455875 0.842849 2.959592 26.404690 -3.728035 -10.491036 -0.954975 0.829918 -1.777723 0.000000 0.000000 0.000000 -121.919737 23.873485 7.843140 -18.740058 12.153295 -18.237618 88.679693 -1.418520 -11.647151 21.478597 -4.963110 16.944644 5.508889 1.917501 0.675163 0.000000 0.000000 0.000000 -121.453222 20.031666 0.356717 44.566428 -0.874512 4.224446 12.891985 -0.260363 -0.184302 1.603414 -1.135307 1.819473 0.000000 0.000000 0.000000 14.145914 -0.220294 -0.433066 7.517328 -4.176833 0.534602 26.310568 4.735043 -11.164186 0.000000 0.000000 0.000000 12.663451 -0.982617 -0.032247 -0.197053 -3.778667 -6.252225 -0.428347 -1.371549 -2.082267 1.191605 -19.578886 -28.603354 -6.607443 -48.370662 -2.435668 0.000000 0.000000 0.000000 12.622393 -1.202824 0.320937 2.115563 10.247516 11.192213 -0.869354 1.796365 -2.797914 23.688203 6.595532 36.298023 3.171983 41.392934 -2.101360 0.000000 0.000000 0.000000 
-17.269953 15.071239 -94.740128 0.000000 0.000000 0.000000 -121.395930 18.337226 -0.318544 -20.420671 1.518847 45.930642 55.141012 0.841114 3.264623 22.856038 -4.135850 -12.208401 -1.086252 0.792066 -1.328806 0.000000 0.000000 0.000000 -125.111580 23.507532 8.788060 -19.167013 13.940439 -16.249975 90.696443 -1.024325 -12.205315 23.008686 -3.124477 16.174047 5.650816 1.883698 0.341189 0.000000 0.000000 0.000000 -123.808244 19.656624 1.383160 41.973261 -5.665388 3.578732 9.984970 -2.142331 -0.721710 0.221454 -0.706239 1.162918 0.000000 0.000000 0.000000 11.083556 -2.051243 -0.749267 4.465752 -4.116608 0.896138 23.625807 7.597908 -13.969619 0.000000 0.000000 0.000000 9.966510 -2.745078 -0.480106 -0.174902 -2.354261 -5.474495 -1.545071 -1.313115 -2.166562 12.399042 -18.332702 -25.756162 -5.635339 -44.154267 -1.865753 0.000000 0.000000 0.000000 9.672911 -3.198582 -0.202835 2.546153 7.371263 9.390447 1.073879 0.319013 -2.538192 30.464167 8.242943 36.512555 4.455787 53.812820 -3.610999 0.000000 0.000000 0.000000 
-18.427885 14.661972 -97.420364 0.000000 0.000000 0.000000 -123.337930 18.365624 1.000868 -18.959007 1.464375 48.203326 54.517692 1.291878 3.382882 19.037047 -3.888756 -14.130926 -0.582564 0.747228 -1.188318 0.000000 0.000000 0.000000 -127.167781 22.823835 9.420494 -21.295131 15.958151 -14.487487 93.181190 -0.400439 -12.826060 23.216634 -1.024268 15.056679 7.169355 1.852106 0.230467 0.000000 0.000000 0.000000 -125.160348 18.874482 1.913413 39.909478 -9.957226 2.531384 7.542092 -3.830388 -1.186137 -0.507203 -0.248891 0.865267 0.000000 0.000000 0.000000 8.251901 -3.662138 -1.037772 0.612018 -3.967073 0.594032 21.024962 10.931655 -16.638320 0.000000 0.000000 0.000000 7.852729 -4.271386 -0.899245 0.020185 -0.478615 -4.295561 -2.736096 -1.403488 -2.895334 22.804065 -15.895551 -22.028839 -4.938570 -41.992245 -1.378173 0.000000 0.000000 0.000000 7.249049 -4.840019 -0.732169 2.619329 4.511035 7.745070 3.051761 -0.423316 -1.905667 35.421040 8.905996 36.453734 5.906573 63.406804 -5.399044 0.000000 0.000000 0.000000 
-19.464817 13.622482 -100.036179 0.000000 0.000000 0.000000 -124.561750 17.984846 2.092935 -18.969746 1.359630 50.203806 54.543900 1.977254 3.330437 15.711759 -3.260343 -16.269480 0.870638 0.773964 -1.557084 0.000000 0.000000 0.000000 -128.181819 21.942486 9.861376 -24.324426 17.900445 -12.995273 95.738605 -0.186844 -13.150792 21.635019 0.180574 12.582977 10.018904 1.797477 0.523689 0.000000 0.000000 0.000000 -125.701367 17.864109 2.025091 38.457267 -13.328001 1.335540 5.845476 -5.105632 -1.471369 -0.881836 0.103024 0.709934 0.000000 0.000000 0.000000 5.975320 -4.858384 -1.225803 -3.401778 -3.856727 -0.262410 18.737031 14.577485 -19.043752 0.000000 0.000000 0.000000 6.322018 -5.331131 -1.236396 0.311259 1.685020 -3.135729 -3.654019 -1.978386 -3.567204 31.283417 -12.520726 -18.117818 -3.988289 -42.291374 -0.681840 0.000000 0.000000 0.000000 5.602858 -5.886320 -1.139402 2.333383 2.139225 6.679238 4.740895 0.044636 -1.194885 38.064412 9.209936 36.016045 5.750030 65.553444 -5.623330 0.000000 0.000000 0.000000 
-20.253847 12.275154 -102.412369 0.000000 0.000000 0.000000 -124.890542 17.329385 3.001965 -19.962889 1.200380 51.810250 54.849015 2.749066 3.146486 13.205110 -2.464730 -18.407225 3.319494 0.809025 -2.425140 0.000000 0.000000 0.000000 -128.346030 20.994987 10.327144 -27.470602 19.061350 -12.252599 97.838485 -0.309495 -12.958317 19.750645 0.532893 9.326471 12.624596 1.749581 1.034773 0.000000 0.000000 0.000000 -125.519124 16.980243 2.071535 37.415284 -15.679476 -0.002237 4.856904 -5.857478 -1.576249 -0.629825 0.503417 1.036665 0.000000 0.000000 0.000000 4.309856 -5.574755 -1.287638 -7.094460 -3.779120 -1.594223 16.908622 18.077605 -21.084225 0.000000 0.000000 0.000000 5.251318 -5.855779 -1.501681 0.654178 3.616340 -2.340486 -4.542283 -2.427373 -4.147457 37.279217 -8.806936 -14.673721 -2.516333 -43.895775 0.377768 0.000000 0.000000 0.000000 4.650822 -6.261993 -1.355654 1.860312 0.593416 6.694737 5.572452 1.170920 -0.662870 38.299415 9.891341 35.448098 3.636322 59.819213 -3.872308 0.000000 0.000000 0.000000 
-20.716881 11.127125 -104.269119 0.000000 0.000000 0.000000 -124.258613 16.506826 3.508740 -21.377164 1.206556 52.746744 55.017864 3.601361 2.873245 11.628082 -1.707352 -20.191830 6.116043 0.790889 -3.475665 0.000000 0.000000 0.000000 -127.958471 20.135765 10.793471 -30.237790 18.909696 -12.461094 98.854093 -0.390128 -12.507510 18.879039 0.613631 6.706876 13.135387 1.678035 1.451498 0.000000 0.000000 0.000000 -125.006518 16.260006 2.262209 36.530440 -17.156380 -1.543200 4.265765 -6.097992 -1.638871 0.633729 0.382822 1.160136 0.000000 0.000000 0.000000 3.234297 -5.853811 -1.268270 -9.922432 -3.627621 -2.893605 15.473152 21.010169 -22.680575 0.000000 0.000000 0.000000 4.254680 -5.948951 -1.791024 0.966534 5.114855 -2.179081 -5.175097 -2.648210 -4.570641 40.736771 -5.428849 -11.906334 -0.548280 -45.068283 1.679106 0.000000 0.000000 0.000000 4.162010 -6.119767 -1.431578 1.322723 -0.390285 7.769889 5.510724 2.324262 -0.480327 36.387655 11.230469 34.916590 1.711553 49.061638 -2.186896 0.000000 0.000000 0.000000 
